<svg xmlns="http://www.w3.org/2000/svg" viewBox="0 0 202 160.49"><g id="Layer_2" data-name="Layer 2"><g id="Layer_1-2" data-name="Layer 1"><path d="M202,0V4.21a20.92,20.92,0,0,0-2.66,1.84c-4,3.75-7.81,7.65-11.86,11.3a9.56,9.56,0,0,0-3.31,7.72q.12,55,0,110.08a10.24,10.24,0,0,0,3.46,8.1c4.9,4.6,9.59,9.41,14.37,14.14v2.53a36.74,36.74,0,0,1-4.54.54q-35.34.06-70.68,0c-1.36,0-2.72-.13-3.9-.2-1.2-2.41-.14-3.78,1.27-5.12,4-3.88,7.94-7.94,12.13-11.65a11.65,11.65,0,0,0,4.12-9.58c-.13-27.91-.07-55.81-.07-83.72v-3l-.88-.06q-22.2,56.37-44.37,112.62H88.7Q62.76,103.27,36.92,46.92l-.77.2v4.47c0,22.58.14,45.16-.11,67.74-.06,5.55,1.33,10,5,14.11,6,6.82,11.65,14,17.45,21.05,1.29,1.55,2.43,3.1,1.13,5.43H0v-4.21a41.56,41.56,0,0,0,3.22-3.14c4.85-5.82,9.41-11.89,14.53-17.46,4.54-4.94,6.34-10.2,6.24-17.05-.39-27.76-.2-55.53-.11-83.31a13.84,13.84,0,0,0-3.54-9.92C14.78,18.53,9.57,11.91,4.15,5.47,2.81,3.88,1.91,2.33,2.91.2H61.26c15,32.85,29.89,65.5,45.11,98.87L146.11,0Z"/></g></g></svg>