<svg xmlns="http://www.w3.org/2000/svg" viewBox="0 0 180.04 180"><g id="Layer_2" data-name="Layer 2"><g id="Layer_1-2" data-name="Layer 1"><path d="M180,84.72V95.27c-.1.51-.24,1-.3,1.53-.37,2.9-.58,5.83-1.1,8.7-4.29,23.59-16,42.68-35.31,56.87-20.52,15.12-43.61,20.49-68.75,16.2a86.23,86.23,0,0,1-54-31.52C1.88,123.93-4.08,97.52,2.71,68.56,7.42,48.5,18.31,32.13,34.45,19.33A87.75,87.75,0,0,1,77.14,1c2.54-.36,5.09-.65,7.63-1H95.32A14.26,14.26,0,0,0,97,.31a85,85,0,0,1,20.76,4.1,89.17,89.17,0,0,1,43.7,31,87.85,87.85,0,0,1,17.56,41.53C179.42,79.51,179.71,82.12,180,84.72ZM42.89,148.83c24.26,19.75,57,20.55,78.28,9.71-2-14.08-12-49.38-15.36-54.25C80.34,112.72,59.83,128.16,42.89,148.83ZM32.51,138.71a157.42,157.42,0,0,1,30.73-28.82,138,138,0,0,1,37.45-19l-7.76-16.5C67.42,83,41.3,86.61,14.69,86.93A74.58,74.58,0,0,0,32.51,138.71ZM59.71,20.85a75.5,75.5,0,0,0-30,23.81A73.84,73.84,0,0,0,16.63,72.44c23.74-.52,46.79-3.8,69.38-11.06A350.84,350.84,0,0,0,59.71,20.85ZM115,87.2a129.16,129.16,0,0,1,50.51.48,75.34,75.34,0,0,0-16.85-45.22c-12.5,11.41-26.65,19.95-42,26.64ZM99.83,56.28c14.27-6,27.25-13.74,38.66-24.13a75,75,0,0,0-41-17.31,68,68,0,0,0-23.12,1.37A356.62,356.62,0,0,1,99.83,56.28Zm20.52,44.52A305,305,0,0,1,134.53,151c16.38-12.54,26.44-28.52,30.06-48.7A114.06,114.06,0,0,0,120.35,100.8Z"/></g></g></svg>