<svg xmlns="http://www.w3.org/2000/svg" viewBox="0 0 203.23 176.39"><g id="Layer_2" data-name="Layer 2"><g id="Layer_1-2" data-name="Layer 1"><path d="M182.44,176,79.77.73c.47-1,1.39-.67,2.14-.67q12.18,0,24.35,0c2.45,0,4.91,0,7.36,0a22.48,22.48,0,0,1,13.64,4.13,22.81,22.81,0,0,1,6.18,7.05c4.21,7.16,8.46,14.29,12.64,21.46,3.06,5.25,6,10.55,9.06,15.8,2.71,4.66,5.51,9.26,8.23,13.91,3.32,5.67,6.57,11.37,9.88,17,3.22,5.5,6.49,11,9.7,16.49,2.53,4.33,5,8.72,7.49,13.06,2.71,4.66,5.5,9.27,8.19,13.94,1.79,3.1,3.79,6.08,4.29,9.8.56,4,.54,8-1.47,11.6-2.49,4.5-5.12,8.92-7.7,13.37q-3.58,6.2-7.19,12.36c-1.18,2-2.38,4-3.57,6Z"/><path d="M0,136a6.19,6.19,0,0,1,1.23-.42,13.75,13.75,0,0,1,1.7,0q60.11,0,120.21,0a4.11,4.11,0,0,1,4.1,2.44c2.19,3.95,4.53,7.81,6.81,11.72,2.44,4.17,4.86,8.35,7.3,12.51s4.79,8.11,7.17,12.17c.34.57.61,1.19,1,2H34.24c-4.5,0-8.22-1.91-11.73-4.51s-5.22-6.39-7.36-9.91C11.72,156.31,8.39,150.58,5,144.86,3.38,142,1.78,139.17,0,136Z"/><path d="M109.29,107.55H16.65C32,81.07,47.48,55,63,28.45,78.59,54.88,93.79,81.18,109.29,107.55Z"/></g></g></svg>